<svg height="1038" viewBox="0 0 689.123 286.016" width="2500" xmlns="http://www.w3.org/2000/svg">
  <path
    d="M343.816.699c4.56-1.58 9.541-.261 13.72 1.8 2.92 1.88 5.84 3.78 9.11 5.01.25.47.77 1.4 1.02 1.86-.13.31-.38.95-.51 1.26 2.33 5.3 3.82 11.58 1.56 17.149-1.54 1.88-4.22 2.171-6.39 2.899-.01 2.69.42 5.351.65 8.021 4.64.75 8.568-2.48 13.158-2.16.62-2.57 1.11-5.182 1.932-7.701.95 1.67.989 3.591 1 5.471 1.2.34 2.42.65 3.648.949.012.461.021 1.381.021 1.841 20.12.12 40.229-.091 60.35.11-.05.688-.148 2.069-.188 2.76.52 0 1.58.01 2.108.01-.02-3.659 0-7.33-.01-10.989.51-.021 1.51-.051 2.01-.061.012 2.88.021 5.76.051 8.641.439.54 1.319 1.619 1.761 2.159.33-.391.989-1.159 1.318-1.55 1.53 1.431.66 3.391.592 5.149 5.63-.061 11.318.319 16.93-.141.42-.31 1.26-.92 1.68-1.229.771.299 1.55.6 2.32.91 2.53-.062 5.07-.07 7.61-.08-.052 1.31-.092 2.619-.142 3.93-3.27-.051-6.55-.12-9.77.439-2.08-1.789-4.87-1.221-7.38-1.289-3.86.18-7.842-.5-11.58.729-2.222.62-4.66.471-6.62-.79-.472 1.17.25 3.79-1.722 3.689-7.76.101-15.51-.069-23.26.051-1.06.56-2.13 1.09-3.188 1.609-1.12 3.34-4.33 5.569-7.062 7.609-.34 5.13 1.69 9.92 2.48 14.899-1.53.439-3.07.891-4.58 1.391-2.17 5.12-.84 12.109-5.86 15.681-3.85 2.239-6.398 7.109-11.59 6.34 2.64 2.2-.72 1.51-.37-.25-9.39-.83-17.3-6.34-25.46-10.539-.38 2.299-.979 4.56-1.6 6.81 3.1.59 5.66 2.87 6.21 6.05.99 6.931-.99 13.812-.96 20.761.22 4.08-1.53 7.819-3.71 11.149-1.91 2.16-4.92-.061-7.21-.38-.521 1.01-1.03 2.021-1.53 3.04.65 2.719.93 5.549 1.84 8.209 5.11 5.65 9.76 11.771 13.33 18.521a244.586 244.586 0 0 1 9.811 23.459c.279 1.551 1.739 2.108 3.021 2.67.17 1.6.34 3.198.5 4.819.5.73 1.01 1.459 1.53 2.199.31 9.861-.9 19.68-2.432 29.41-.948 4.391 1.62 8.68.58 13.1.12 2.263-1.438 3.972-2.17 5.972-.14 4.67-.37 9.399.142 14.061.358 3.42 3.25 5.619 5.21 8.17 2.14 2.271 3.93 5.32 7.17 6.129 3.05.91 5.96 2.23 8.648 3.961.82 2.029.67 4.181.28 6.289-5.86 1.08-11.84.541-17.76.632-4.562.239-8.63-2.211-13.062-2.722-4.29-.108-9.52 2.021-12.818-1.819 1.398-5.328 1.51-11.05 4.068-16.021.82-5.629-.738-11.34-.41-17.02-.488-.41-1.47-1.23-1.96-1.642.352-3.709-1.479-7.01-2.09-10.559-.398-5.183-.87-10.361-1.47-15.521-.47-2.51.83-4.809 2.6-6.479.16-2.9.552-5.771.83-8.65-.43-1.871-1.92-3.26-2.88-4.86-3.21 1.352-7.54.711-9.45-2.431-4.529-6.739-9.05-13.479-13.63-20.18-1.8-.119-3.7.07-5.38-.65-1.938-1.989-2.95-4.639-4.188-7.059-1.771 1.99-1.642 5.039-3.74 6.85-4.44 4.261-5.62 10.521-7.94 15.98-1.778 3.539-.778 7.809-2.76 11.26-1.06 1.859-3.72 2.229-4.42 4.351-.92 2.288-2 4.659-4.15 6.051-2.33 1.528-2.949 4.43-3.988 6.828-.95 2.211.46 4.53.13 6.801-1.48 7.211-6.07 13.24-8 20.301-.88 3.18-2.141 6.76-5.841 7.439-4.21 7.52-6.529 16.721-4.149 25.188 1.46 2.66 1.38 5.65.93 8.58-6.689.521-13.55 1.42-20.119-.449-1.54-3.051-1.32-6.641-1-9.938 2.029-8.672 4.72-17.191 6.369-25.951-2.06-1.83-1.579-4.629-1.54-7.08-.069-4.57 3.04-8.23 5.2-11.98.811-3.85.431-7.987 2.42-11.52 2.341-4.42 4.32-9.199 7.931-12.77.689-3.15 3.011-5.529 3.949-8.562 1-2.68-.75-5.4-.398-8.139.859-8.312 2.37-16.541 3.68-24.791-2.479-2.07-1.68-5.359-2.47-8.15.39-1.1.88-2.149 1.47-3.17-.62-.57-1.229-1.15-1.85-1.719.6-2.933.43-8.183 4.93-7.23.28-9.71-3.09-19.11-1.96-28.831.6.699 1.189 1.41 1.79 2.12l-.32-3.29c1.88-1 3.88-1.77 5.98-2.16-3.42-.449-6.75-1.319-10.102-2.1-.81-2.131-.358-4.4-.06-6.58 1.3-7.36 1.78-14.82 2.05-22.28 3.79-1.318 7.97-.199 11.67-1.96-1.148-9.33-1.438-19.069 1.88-28.02 2.67-7.621 7.771-14.971 15.73-17.65 3.76-.899 8.49-1.91 11.148 1.74.73-.67 1.46-1.36 2.19-2.03-6.069-12.054 1.181-29.664 14.953-32.144m48.569 52.28c-1.6.98-3.17 2.101-1.488 3.881-.82.489-1.642.96-2.472 1.409-1.3 1-4.22 1.569-3.88 3.591a48.68 48.68 0 0 1 3.761 7.369c3.189-2.619 5.729-6.141 7.449-9.869.36-.37 1.091-1.11 1.45-1.471-.16-1.71-.54-3.381-1.21-4.96-1.2.021-2.41.04-3.61.05z"/>
</svg>
