<?xml version="1.0" standalone="no"?>
<!DOCTYPE svg PUBLIC "-//W3C//DTD SVG 20010904//EN"
  "http://www.w3.org/TR/2001/REC-SVG-20010904/DTD/svg10.dtd">
<svg height="512.000000pt" preserveAspectRatio="xMidYMid meet"
     version="1.0" viewBox="0 0 512.000000 512.000000" width="512.000000pt"
     xmlns="http://www.w3.org/2000/svg">
  <g fill="#000000"
     stroke="none" transform="translate(0.000000,512.000000) scale(0.100000,-0.100000)">
    <path d="M2380 4523 c-83 -8 -239 -36 -328 -60 -97 -25 -247 -78 -268 -95 -7
-5 -12 -44 -13 -96 -1 -48 -10 -276 -21 -507 -11 -231 -20 -464 -20 -518 l0
-98 59 45 c202 156 492 284 768 341 587 121 1203 -40 1663 -434 86 -74 155
-145 263 -272 l38 -44 -6 50 c-23 183 -94 417 -184 600 -289 590 -853 993
-1509 1080 -101 13 -345 18 -442 8z m655 -313 c151 -39 267 -105 396 -225 98
-92 135 -110 222 -108 71 1 81 -6 45 -31 -25 -18 -74 -21 -112 -6 -52 19 -15
-38 48 -75 46 -27 136 -48 161 -39 9 4 22 21 30 39 11 27 18 32 35 28 51 -13
43 -79 -13 -106 -34 -17 -40 -18 -91 -3 -30 9 -60 15 -65 14 -6 -2 -92 80
-191 182 -175 178 -182 184 -194 162 -14 -26 -26 -19 -26 15 0 27 -44 58 -140
96 -155 61 -342 61 -560 1 -88 -24 -87 -24 -70 -34 11 -7 3 -10 -27 -10 -23 0
-54 -5 -68 -10 -22 -8 -26 -14 -20 -33 4 -12 9 -39 12 -59 3 -21 10 -38 17
-38 6 0 5 -4 -3 -9 -8 -5 -14 -23 -15 -40 0 -17 -4 -31 -8 -31 -3 0 -8 -6 -11
-12 -2 -7 -3 -5 -2 5 2 10 -4 17 -13 18 -15 1 -15 2 1 6 17 5 23 28 9 37 -13
8 -94 -33 -87 -44 3 -5 -2 -10 -13 -10 -31 0 -108 -58 -184 -138 -61 -66 -66
-70 -39 -29 57 85 138 154 233 200 78 37 88 45 88 69 0 34 -19 78 -35 78 -22
0 -161 -93 -214 -143 -51 -49 -52 -49 -24 -12 40 52 117 124 171 160 23 15 42
31 42 35 0 15 -40 42 -97 66 -45 20 -50 24 -23 19 19 -4 63 -20 98 -36 l62
-30 53 24 c86 40 167 62 302 81 66 9 243 -4 320 -24z"/>
    <path d="M1335 4099 c-77 -62 -231 -216 -295 -294 -238 -291 -389 -657 -431
-1050 -14 -131 -6 -368 16 -505 78 -478 320 -899 694 -1209 41 -33 78 -61 82
-61 13 0 1064 549 1066 557 2 5 -36 26 -84 48 -204 92 -392 224 -563 395 -299
298 -487 663 -557 1075 -27 163 -25 468 4 630 24 130 59 261 99 367 14 38 24
72 22 78 -2 6 -26 -8 -53 -31z m-284 -610 c-33 -119 -61 -265 -67 -353 l-6
-81 49 -42 c50 -41 50 -42 56 -115 22 -255 167 -609 349 -849 l69 -90 -10 -52
c-5 -29 -9 -52 -8 -53 1 -1 33 -29 71 -63 65 -58 70 -61 120 -61 48 0 58 -5
140 -65 48 -35 105 -74 126 -86 l40 -22 -93 -45 c-50 -24 -102 -48 -114 -53
-20 -7 -42 11 -183 147 -191 186 -254 265 -246 306 3 15 9 41 12 57 5 25 -5
44 -64 128 -38 54 -86 128 -106 164 -26 47 -53 80 -96 113 -33 26 -60 53 -60
59 0 7 -11 115 -25 242 l-25 229 -56 57 -57 57 18 74 c31 128 168 488 182 475
2 -3 -5 -38 -16 -78z m-122 -759 c5 -8 11 -40 13 -71 l4 -57 -65 28 c-63 27
-66 30 -69 66 -2 21 -1 53 3 71 l6 34 50 -28 c28 -15 54 -35 58 -43z m-44
-183 l60 -22 9 -58 c5 -31 7 -59 4 -62 -5 -5 -127 20 -133 27 -7 9 -15 138 -8
137 4 0 35 -10 68 -22z m92 -231 c6 -6 20 -43 31 -82 l20 -72 -81 27 -80 27
-17 71 -16 70 65 -14 c36 -8 71 -20 78 -27z m64 -236 l146 -54 39 -75 c21 -41
66 -116 99 -165 l60 -91 -18 -52 -19 -52 27 -35 c15 -20 33 -36 40 -36 6 0 20
18 30 40 10 22 21 40 26 40 4 0 22 -18 40 -41 l32 -41 -21 -44 c-23 -48 -28
-89 -12 -99 23 -14 7 -37 -44 -62 l-54 -26 -62 66 c-99 107 -180 209 -172 221
3 6 23 35 44 65 21 30 38 60 38 67 0 7 -28 58 -62 112 l-63 100 -102 42 c-57
23 -103 44 -103 46 0 2 -11 33 -25 70 -14 36 -21 64 -17 62 4 -2 73 -28 153
-58z"/>
    <path d="M3507 2904 c85 -1025 -580 -1911 -1587 -2114 -127 -26 -133 -28 -105
-40 293 -120 622 -170 918 -141 485 48 898 240 1227 570 220 221 373 469 471
763 41 120 89 329 89 383 0 29 -22 44 -501 350 -276 176 -506 322 -511 324 -6
2 -6 -36 -1 -95z m503 -589 c-11 -20 -10 -28 4 -50 18 -28 15 -57 -15 -117
-11 -21 -19 -41 -19 -45 0 -5 26 -23 58 -40 42 -23 62 -29 69 -22 13 13 27 -9
36 -56 8 -45 -5 -61 -29 -34 -10 12 -46 35 -79 50 -51 25 -62 27 -71 15 -5 -8
-22 -18 -37 -21 -23 -6 -25 -10 -16 -32 5 -13 9 -35 9 -48 0 -40 81 -77 92
-43 6 18 58 -7 58 -27 0 -31 -20 -55 -46 -55 -36 0 -121 46 -140 76 -9 13 -23
52 -31 86 -15 67 -43 127 -67 147 -21 17 -46 -2 -46 -33 0 -27 -19 -54 -40
-56 -47 -6 -52 13 -17 69 12 19 33 58 47 85 29 57 53 77 72 58 9 -9 9 -15 0
-24 -22 -22 -12 -55 33 -118 51 -68 79 -76 102 -30 18 35 16 163 -2 206 -17
42 -13 54 21 54 13 0 32 8 42 18 22 24 29 18 12 -13z m-304 -606 c19 -11 34
-22 34 -24 0 -1 -36 -25 -79 -54 -98 -63 -141 -103 -141 -129 0 -34 97 -102
145 -102 9 0 27 12 40 26 l24 26 7 -37 c7 -39 -15 -105 -36 -105 -23 0 -148
53 -193 82 -44 28 -77 70 -77 99 0 14 219 239 233 239 5 0 25 -9 43 -21z
m-253 -495 c13 -5 10 -17 -14 -77 -17 -40 -33 -75 -37 -78 -4 -4 -28 0 -54 8
-26 9 -54 13 -62 10 -24 -9 -19 -32 9 -45 30 -14 32 -28 5 -42 -15 -8 -33 -5
-81 15 -56 24 -63 25 -77 11 -14 -14 -14 -17 3 -36 16 -18 17 -23 5 -30 -8 -6
-25 -10 -37 -10 -28 0 -30 22 -7 75 8 20 14 38 12 40 -2 2 -21 10 -42 19 -22
9 -37 19 -34 22 3 2 30 23 59 45 46 34 55 37 58 23 2 -11 -8 -28 -24 -42 -15
-12 -26 -24 -24 -25 14 -9 62 -27 74 -27 17 0 35 55 32 95 -3 36 29 50 35 14
2 -16 18 -30 51 -47 54 -27 73 -24 87 13 6 14 14 36 20 50 10 26 18 29 43 19z"/>
  </g>
</svg>
