<?xml version="1.0" encoding="UTF-8"?>
<svg viewBox="0 0 32 32" xmlns="http://www.w3.org/2000/svg">
  <path
    d="M16 4c-2.367 0-4.648.69-6.621 2H6v3.379C4.69 11.352 4 13.633 4 16c0 2.367.69 4.648 2 6.621V26h3.379c1.973 1.31 4.254 2 6.621 2 2.367 0 4.648-.69 6.621-2H26v-3.379c1.31-1.973 2-4.254 2-6.621 0-2.367-.69-4.648-2-6.621V6h-3.379C20.648 4.69 18.367 4 16 4zm0 2c2.061 0 4.045.63 5.738 1.818l.258.182H24v2.004l.182.258A9.942 9.942 0 0 1 26 16c0 2.061-.63 4.045-1.818 5.738l-.182.258V24h-2.004l-.258.182A9.938 9.938 0 0 1 16 26c-2.06 0-4.044-.63-5.738-1.818L10.004 24H8v-2.004l-.182-.258A9.938 9.938 0 0 1 6 16c0-2.06.63-4.044 1.818-5.738L8 10.004V8h2.004l.258-.182A9.942 9.942 0 0 1 16 6zm-7 5l.795.795a.986.986 0 0 1 .268.488l1.818 8.182a1 1 0 0 1-.27.924L11 22h4l-.463-.928L16 17l1.463 4.072L17 22h4l-.611-.611a1 1 0 0 1-.27-.924l1.819-8.182a.99.99 0 0 1 .267-.488L23 11h-4l.336.67a.997.997 0 0 1 .074.69l-1.127 4.507L16 11l-2.283 5.867-1.127-4.508a.997.997 0 0 1 .076-.69L13 11H9z"/>
</svg>
