<?xml version="1.0" standalone="no"?>
<!DOCTYPE svg PUBLIC "-//W3C//DTD SVG 20010904//EN"
 "http://www.w3.org/TR/2001/REC-SVG-20010904/DTD/svg10.dtd">
<svg version="1.0" xmlns="http://www.w3.org/2000/svg"
 width="980.000000pt" height="990.000000pt" viewBox="0 0 980.000000 990.000000"
 preserveAspectRatio="xMidYMid meet">

<g transform="translate(0.000000,990.000000) scale(0.100000,-0.100000)"
fill="#000000" stroke="none">
<path d="M4340 8944 c-305 -520 -559 -949 -565 -954 -15 -12 -154 -71 -423
-181 l-243 -99 -585 251 c-322 138 -587 249 -588 247 -1 -2 78 -291 175 -643
98 -352 178 -648 179 -657 0 -10 -20 -49 -44 -86 -129 -201 -244 -441 -286
-597 -12 -44 -26 -89 -30 -100 -5 -13 -349 -212 -964 -560 -526 -296 -956
-542 -956 -545 0 -3 420 -251 934 -550 l934 -544 12 -41 c46 -154 199 -499
275 -615 l47 -73 -207 -594 c-114 -327 -205 -597 -201 -600 3 -3 291 62 640
146 l635 152 193 -129 c243 -163 425 -272 552 -333 l99 -48 469 -883 c258
-486 472 -886 476 -890 4 -4 246 395 537 887 514 867 531 895 570 910 174 71
647 303 748 368 l54 35 627 -167 c344 -92 626 -163 626 -158 0 5 -85 290 -190
633 -104 344 -190 631 -190 640 0 8 42 85 94 172 149 252 175 298 267 477 l87
170 188 115 c104 64 485 295 847 515 361 219 656 402 655 407 -2 4 -167 107
-368 229 -941 571 -1088 660 -1272 771 l-196 118 -17 53 c-50 152 -180 384
-319 567 -46 61 -79 113 -77 125 1 11 75 288 165 615 90 327 162 596 161 598
-1 1 -284 -85 -629 -193 l-626 -194 -103 72 c-213 151 -420 266 -507 282 -35
6 -42 19 -565 915 -291 500 -532 909 -535 909 -3 0 -255 -425 -560 -945z m960
-1934 c34 -34 45 -38 415 -129 438 -108 377 -77 565 -291 294 -334 488 -621
515 -760 3 -19 17 -78 30 -130 142 -563 133 -1123 -26 -1558 -98 -270 -261
-513 -464 -692 -258 -228 -678 -432 -1027 -499 -257 -49 -723 -64 -978 -31
-305 40 -555 128 -718 253 -58 45 -132 120 -132 135 0 4 242 94 538 201 681
246 788 288 1057 421 454 223 703 435 744 632 5 24 26 86 46 138 183 471 126
953 -158 1319 -27 35 -61 91 -74 125 -14 34 -28 65 -33 70 -5 5 -31 3 -60 -4
-38 -9 -62 -9 -95 -1 -91 23 -240 32 -352 21 -248 -23 -459 -114 -666 -288
-68 -57 -85 -78 -113 -138 -51 -110 -75 -206 -81 -329 -6 -133 10 -215 64
-317 84 -161 214 -239 288 -175 39 33 42 87 11 253 -33 180 -33 177 7 192 69
25 165 42 237 42 353 1 557 -290 586 -834 l7 -123 -60 -50 c-150 -125 -378
-249 -545 -297 -279 -80 -539 -54 -793 81 -23 12 -97 79 -166 150 -340 351
-562 710 -623 1006 -17 83 -21 249 -7 310 6 24 4 98 -6 204 -14 163 -14 167 6
183 10 8 63 54 118 101 54 47 184 160 289 250 l190 165 400 233 c219 129 402
236 406 238 4 2 70 -8 147 -24 l139 -27 124 56 123 56 45 -52 c25 -28 61 -67
80 -86z"/>
</g>
</svg>
