<?xml version="1.0" standalone="no"?>
<!DOCTYPE svg PUBLIC "-//W3C//DTD SVG 20010904//EN"
 "http://www.w3.org/TR/2001/REC-SVG-20010904/DTD/svg10.dtd">
<svg version="1.0" xmlns="http://www.w3.org/2000/svg"
 width="512.000000pt" height="512.000000pt" viewBox="0 0 512.000000 512.000000"
 preserveAspectRatio="xMidYMid meet">

<g transform="translate(0.000000,512.000000) scale(0.100000,-0.100000)"
fill="#000000" stroke="none">
<path d="M2396 4518 c-135 -11 -324 -51 -453 -94 -132 -44 -163 -60 -163 -82
0 -9 -11 -264 -25 -567 -14 -302 -25 -564 -25 -582 l0 -32 77 55 c510 366
1180 463 1777 258 335 -116 660 -340 871 -602 61 -75 65 -67 35 79 -74 362
-255 708 -510 972 -329 343 -773 554 -1253 597 -127 11 -190 11 -331 -2z m602
-293 c166 -35 299 -105 428 -227 105 -99 155 -123 236 -114 52 5 58 4 58 -13
0 -38 -66 -61 -120 -43 -28 10 -29 10 -20 -8 23 -43 121 -90 187 -90 29 0 36
5 49 35 15 36 31 42 65 25 28 -16 25 -65 -7 -97 -22 -22 -31 -25 -77 -20 -29
2 -61 8 -72 13 -17 7 -18 5 -8 -7 22 -27 117 -68 182 -78 66 -11 91 -7 91 14
0 7 7 18 15 25 13 10 19 10 35 -5 27 -24 26 -70 -2 -89 -28 -20 -54 -20 -109
-1 l-44 15 25 -22 c40 -34 140 -77 200 -85 38 -6 55 -13 55 -23 0 -28 -72 -15
-158 29 -151 75 -259 162 -481 386 -153 153 -211 205 -214 193 -6 -28 -30 -21
-34 9 -2 22 -16 35 -58 61 -156 93 -355 109 -600 49 l-95 -24 116 5 c196 8
365 -41 534 -153 81 -54 115 -88 97 -99 -9 -5 -34 10 -103 62 -44 34 -154 93
-196 106 -18 6 -21 4 -16 -16 4 -22 4 -22 -19 3 -13 15 -32 31 -43 37 -37 18
-285 49 -285 35 0 -4 16 -19 35 -32 54 -36 135 -151 135 -191 0 -20 -28 -9
-34 14 -9 36 -74 58 -186 64 -112 5 -150 -6 -150 -42 0 -24 -49 -150 -56 -143
-2 1 3 25 11 52 8 26 15 52 15 58 0 14 -89 -2 -135 -25 -48 -25 -187 -163
-233 -232 -41 -63 -41 -49 -1 23 77 136 161 215 293 276 42 20 76 42 76 49 0
25 -22 76 -33 76 -48 0 -242 -155 -301 -240 -9 -14 -4 -1 11 29 34 67 137 179
203 221 27 18 50 36 50 40 0 24 -96 70 -185 90 -33 8 -28 9 30 5 53 -3 86 -13
137 -38 59 -29 70 -31 90 -20 143 79 434 117 616 78z m-921 -11 c-3 -3 -12 -4
-19 -1 -8 3 -5 6 6 6 11 1 17 -2 13 -5z"/>
<path d="M2502 4109 c-96 -12 -105 -16 -96 -47 4 -15 8 -39 7 -54 l0 -27 96 6
c53 3 121 1 151 -5 30 -6 56 -9 58 -7 6 6 -103 117 -127 129 -18 8 -45 10 -89
5z"/>
<path d="M2331 3924 c-42 -18 -38 -23 12 -16 23 2 37 10 37 18 0 17 -6 17 -49
-2z"/>
<path d="M1340 4094 c-69 -54 -202 -185 -276 -271 -200 -234 -350 -545 -420
-871 -36 -164 -45 -474 -19 -654 56 -399 224 -760 491 -1057 60 -67 241 -229
271 -243 18 -9 85 23 450 212 235 122 472 245 526 273 53 28 97 53 97 56 0 3
-31 19 -69 34 -153 63 -382 216 -529 353 -586 547 -783 1388 -499 2137 15 37
25 67 24 67 -1 0 -22 -16 -47 -36z m-253 -501 c-48 -152 -83 -315 -101 -477
-6 -49 -6 -49 44 -95 50 -46 50 -46 60 -131 33 -287 171 -612 368 -862 44 -57
45 -59 40 -115 l-6 -58 70 -62 c67 -61 72 -63 123 -63 50 0 59 -4 132 -58 43
-33 100 -72 127 -88 l50 -28 -110 -53 c-60 -29 -117 -53 -127 -53 -23 0 -366
340 -402 400 -28 44 -28 44 -11 89 l17 45 -79 116 c-44 63 -94 140 -111 172
-20 35 -52 72 -87 98 -30 24 -56 52 -59 64 -2 11 -14 120 -26 241 l-22 220
-59 61 -58 61 25 98 c14 54 44 146 65 203 43 114 153 362 158 357 2 -2 -8 -38
-21 -82z m-207 -818 c56 -34 57 -36 64 -87 12 -105 16 -101 -61 -66 -38 17
-70 34 -73 38 -7 10 0 150 7 150 3 0 31 -16 63 -35z m66 -249 c17 -17 27 -139
11 -133 -7 2 -39 10 -72 17 -33 7 -63 17 -67 24 -4 6 -8 41 -8 78 l0 67 63
-21 c34 -11 67 -26 73 -32z m-4 -187 c21 -5 41 -17 46 -27 16 -33 45 -142 39
-148 -3 -3 -42 6 -85 20 l-80 27 -16 64 c-9 35 -16 69 -16 76 0 12 36 8 112
-12z m296 -393 c23 -46 67 -120 98 -166 l56 -83 -18 -52 -17 -52 28 -37 c15
-20 29 -36 30 -36 2 0 12 20 24 45 12 25 25 45 30 45 5 0 25 -20 45 -44 l36
-45 -25 -56 c-23 -52 -24 -59 -10 -85 8 -16 15 -33 15 -38 0 -5 -27 -21 -60
-36 l-61 -26 -67 72 c-80 85 -172 198 -172 213 0 5 20 39 44 75 l44 65 -19 35
c-11 19 -41 67 -67 105 -47 69 -48 70 -144 109 l-98 40 -25 66 c-14 36 -25 70
-25 77 0 6 71 -16 158 -49 l158 -60 42 -82z"/>
<path d="M3505 2973 c14 -35 18 -339 6 -452 -34 -322 -145 -634 -319 -896
-294 -442 -762 -748 -1292 -845 l-95 -17 49 -22 c72 -32 230 -77 359 -103 99
-20 141 -23 357 -23 228 1 254 3 375 28 434 92 810 307 1090 625 253 284 423
656 478 1044 l5 36 -171 109 c-95 61 -321 205 -504 321 -182 117 -335 212
-338 212 -4 0 -4 -8 0 -17z m520 -640 c-15 -35 -17 -61 -6 -67 17 -11 13 -63
-9 -106 -11 -22 -20 -45 -20 -52 0 -7 23 -26 51 -41 39 -21 54 -25 64 -17 11
9 17 5 29 -19 15 -29 22 -111 10 -111 -4 0 -22 14 -42 31 -20 18 -55 40 -79
51 -39 17 -45 18 -59 4 -8 -9 -25 -16 -36 -16 -15 0 -18 -4 -13 -17 5 -10 10
-33 13 -51 3 -24 12 -37 34 -48 27 -14 31 -14 42 1 9 13 17 14 39 6 34 -13 43
-35 29 -67 -33 -72 -222 23 -222 111 0 38 -31 121 -56 151 -23 28 -24 28 -39
10 -8 -11 -15 -29 -15 -41 0 -30 -19 -45 -57 -45 -25 0 -33 4 -32 18 1 33 103
205 127 213 28 11 41 -14 23 -43 -15 -25 4 -67 59 -127 38 -41 41 -43 59 -27
26 24 34 129 16 201 -19 73 -19 75 9 75 13 0 34 9 47 20 30 24 43 25 34 3z
m187 -98 c15 -33 -8 -61 -41 -50 -25 8 -27 23 -5 53 20 29 32 28 46 -3z m-514
-515 c68 -36 68 -35 10 -67 -72 -41 -174 -119 -182 -139 -8 -21 8 -41 63 -76
61 -38 96 -37 118 5 l17 32 13 -45 c10 -33 10 -53 3 -76 -17 -52 -30 -56 -91
-35 -137 47 -219 107 -219 162 0 28 16 48 112 146 62 62 113 113 115 113 2 0
20 -9 41 -20z m172 -130 c23 -23 26 -57 8 -95 -15 -33 -41 -32 -55 3 -7 15
-22 38 -33 52 -13 16 -18 33 -14 43 9 24 69 22 94 -3z m-415 -374 c17 -13 17
-16 -13 -87 -17 -42 -37 -75 -47 -77 -9 -2 -36 3 -60 11 -38 13 -45 13 -56 1
-9 -12 -6 -16 20 -25 35 -12 35 -13 21 -40 -14 -25 -45 -24 -109 3 -41 16 -55
18 -64 9 -9 -10 -8 -15 6 -25 23 -17 22 -33 -4 -46 -26 -15 -69 -5 -69 16 0 8
7 31 15 51 8 19 15 37 15 39 0 2 -18 13 -40 24 -22 11 -40 22 -40 24 0 6 109
86 125 92 25 10 18 -34 -10 -62 l-25 -25 26 -9 c38 -15 43 -13 62 27 13 27 14
37 5 40 -19 7 -15 31 6 43 27 14 28 13 35 -15 7 -29 84 -72 109 -62 9 3 24 29
34 56 19 54 28 59 58 37z m-582 -327 c-5 -58 -9 -68 -30 -78 -34 -16 -64 -14
-57 3 3 7 -9 34 -27 60 -27 37 -30 48 -20 59 10 10 19 4 46 -28 l34 -40 11 30
c11 28 40 68 46 63 1 -2 0 -33 -3 -69z"/>
</g>
</svg>
