<?xml version="1.0" standalone="no"?>
<!DOCTYPE svg PUBLIC "-//W3C//DTD SVG 20010904//EN"
 "http://www.w3.org/TR/2001/REC-SVG-20010904/DTD/svg10.dtd">
<svg version="1.0" xmlns="http://www.w3.org/2000/svg"
 width="900.000000pt" height="900.000000pt" viewBox="0 0 900.000000 900.000000"
 preserveAspectRatio="xMidYMid meet">

<g transform="translate(0.000000,900.000000) scale(0.100000,-0.100000)"
fill="#000000" stroke="none">
<path d="M1312 7673 c-1185 -1190 -1608 -2947 -1095 -4548 370 -1155 1213
-2131 2298 -2660 691 -336 1468 -498 2196 -457 475 27 874 105 1276 248 1230
437 2195 1357 2681 2555 477 1176 432 2509 -123 3654 -220 452 -521 874 -877
1228 -60 59 -112 107 -116 106 -6 0 -757 -869 -821 -949 l-24 -31 89 -92 c517
-533 830 -1225 895 -1977 14 -163 7 -476 -15 -645 -51 -384 -178 -790 -344
-1092 -30 -56 -36 -61 -51 -50 -10 6 -402 384 -872 839 l-854 827 -410 886
c-225 488 -420 907 -432 933 l-21 47 -1 -1421 -1 -1421 876 -848 876 -848 -23
-19 c-58 -45 -283 -191 -369 -238 -361 -200 -743 -321 -1210 -382 -146 -19
-586 -16 -740 6 -378 52 -704 152 -1030 315 -186 93 -503 292 -497 312 1 3
397 387 880 853 l877 847 0 1422 0 1422 -348 -750 c-192 -412 -387 -833 -434
-935 l-85 -185 -869 -842 c-478 -463 -874 -842 -880 -842 -13 -1 -98 159 -158
302 -118 277 -188 536 -232 862 -22 164 -26 586 -6 750 88 721 380 1343 873
1859 l101 106 -28 35 c-97 118 -810 944 -817 944 -5 1 -65 -56 -135 -126z"/>
</g>
</svg>
