<?xml version="1.0" standalone="no"?>
<!DOCTYPE svg PUBLIC "-//W3C//DTD SVG 20010904//EN"
 "http://www.w3.org/TR/2001/REC-SVG-20010904/DTD/svg10.dtd">
<svg version="1.0" xmlns="http://www.w3.org/2000/svg"
 width="354.000000pt" height="364.000000pt" viewBox="0 0 354.000000 364.000000"
 preserveAspectRatio="xMidYMid meet">

<g transform="translate(0.000000,364.000000) scale(0.100000,-0.100000)"
fill="#000000" stroke="none">
<path d="M1030 3589 c-284 -65 -560 -134 -560 -140 0 -3 26 -16 58 -27 185
-68 354 -244 378 -394 l7 -38 353 0 354 0 -2 240 -3 241 -225 74 c-124 41
-227 74 -230 74 -3 -1 -61 -14 -130 -30z"/>
<path d="M2186 3542 l-229 -75 4 -323 4 -322 67 64 c106 102 111 104 395 104
l241 0 22 64 c55 166 215 319 393 376 20 6 37 15 37 18 0 9 -364 99 -640 158
-36 8 -65 14 -65 13 0 0 -103 -35 -229 -77z"/>
<path d="M385 2866 c-78 -19 -152 -62 -183 -107 -22 -32 -33 -94 -22 -124 l10
-25 564 0 564 0 56 -62 56 -63 197 198 198 197 -695 -1 c-516 0 -708 -4 -745
-13z"/>
<path d="M2153 2851 c-41 -30 -130 -126 -184 -199 l-31 -42 543 0 542 0 64
-55 c36 -30 68 -55 71 -55 4 0 93 86 197 190 l190 190 -676 0 -676 0 -40 -29z"/>
<path d="M1555 2460 c-98 -99 -150 -101 -235 -11 l-47 50 -107 3 c-58 2 -106
2 -106 1 0 -2 126 -147 280 -323 l280 -320 0 330 c0 181 -1 330 -3 330 -1 0
-29 -27 -62 -60z"/>
<path d="M296 2468 c85 -89 962 -1095 974 -1117 7 -15 8 -27 2 -33 -5 -5 -141
-8 -338 -6 l-329 3 -59 28 c-33 15 -78 43 -101 62 l-42 34 -199 -200 -199
-200 795 3 795 3 47 24 c138 68 207 218 163 353 -27 83 -87 164 -332 444 -125
144 -302 347 -393 452 l-165 191 -330 1 -329 0 40 -42z"/>
<path d="M1902 2497 c-15 -18 -59 -172 -77 -274 -26 -141 -31 -372 -11 -472
32 -156 107 -299 232 -443 143 -163 285 -254 472 -300 115 -29 361 -31 467 -5
95 24 203 78 260 130 l48 43 -134 1 c-243 2 -426 67 -573 204 -163 152 -240
319 -253 547 -9 156 28 367 92 525 l24 57 -268 0 c-206 0 -271 -3 -279 -13z"/>
<path d="M2549 2473 c-71 -180 -99 -301 -106 -458 -5 -112 -3 -142 16 -214 28
-113 84 -223 148 -290 l52 -56 1 523 0 522 -50 0 c-46 0 -52 -3 -61 -27z"/>
<path d="M921 1507 c-1 -67 2 -89 12 -93 8 -3 44 -4 81 -2 l67 3 -48 55 c-26
30 -62 70 -79 89 l-31 35 -2 -87z"/>
<path d="M1972 626 c3 -333 8 -609 11 -612 9 -9 157 82 259 158 133 101 241
201 334 313 l84 100 0 148 0 147 -29 0 c-16 0 -61 7 -98 14 -198 42 -351 126
-504 278 l-62 61 5 -607z"/>
<path d="M1233 933 l-313 -3 0 -164 0 -164 48 -64 c67 -90 242 -261 352 -345
96 -72 266 -183 282 -183 4 0 8 209 8 465 l0 465 -32 -2 c-18 -2 -174 -4 -345
-5z"/>
</g>
</svg>
