<?xml version="1.0" standalone="no"?>
<!DOCTYPE svg PUBLIC "-//W3C//DTD SVG 20010904//EN"
 "http://www.w3.org/TR/2001/REC-SVG-20010904/DTD/svg10.dtd">
<svg version="1.0" xmlns="http://www.w3.org/2000/svg"
 width="512.000000pt" height="512.000000pt" viewBox="0 0 512.000000 512.000000"
 preserveAspectRatio="xMidYMid meet">

<g transform="translate(0.000000,512.000000) scale(0.100000,-0.100000)"
fill="#000000" stroke="none">
<path d="M2350 4469 c-269 -31 -561 -131 -783 -267 l-67 -42 -270 0 -270 0 0
-270 0 -270 -42 -67 c-175 -286 -278 -651 -278 -993 0 -342 103 -707 278 -993
l42 -67 0 -270 0 -270 270 0 270 0 67 -42 c285 -175 654 -278 995 -278 340 0
706 103 991 278 l67 42 270 0 270 0 0 270 0 270 42 67 c175 286 278 651 278
993 0 342 -103 707 -278 993 l-42 67 0 270 0 270 -270 0 -270 0 -67 42 c-346
212 -800 313 -1203 267z m513 -338 c200 -40 400 -122 569 -233 l89 -58 159 0
160 0 0 -160 0 -159 61 -93 c110 -168 190 -364 231 -571 32 -161 32 -433 0
-594 -41 -206 -131 -423 -241 -587 l-51 -75 0 -161 0 -160 -160 0 -159 0 -93
-61 c-168 -110 -365 -190 -571 -231 -151 -30 -423 -32 -572 -4 -209 39 -442
133 -609 245 l-75 51 -161 0 -160 0 0 160 0 159 -61 93 c-110 168 -190 364
-231 571 -32 161 -32 433 0 594 41 206 122 405 234 575 l58 89 0 159 0 160
160 0 159 0 93 61 c203 133 447 220 708 253 89 11 358 -3 463 -23z"/>
<path d="M1523 3279 c55 -58 78 -91 85 -122 6 -23 75 -328 152 -677 112 -503
141 -646 137 -688 -4 -50 -7 -57 -73 -123 l-68 -69 322 0 322 0 -37 74 -37 75
93 258 c51 142 103 286 114 321 12 34 24 62 27 62 3 0 15 -28 27 -62 11 -35
63 -179 114 -321 l93 -258 -37 -75 -37 -74 322 0 322 0 -68 69 c-66 66 -69 73
-73 123 -4 42 25 185 137 688 77 349 146 654 152 677 7 31 30 64 85 122 l75
81 -316 0 -315 0 34 -72 c19 -40 35 -85 35 -100 0 -44 -182 -761 -190 -748 -4
6 -85 213 -181 460 -96 248 -176 450 -179 450 -3 0 -83 -202 -179 -450 -96
-247 -177 -454 -181 -460 -8 -13 -190 704 -190 748 0 15 16 60 35 100 l34 72
-315 0 -316 0 75 -81z"/>
</g>
</svg>
